<svg id="site-logo-image" version="1.1" viewBox="0 0 41.22 47" xml:space="preserve" xmlns="http://www.w3.org/2000/svg" xmlns:xlink="http://www.w3.org/1999/xlink">
 <g>
   <path
     d="M0 3.12993C-8.42869e-08 5.05818 1.22961 6.25985 3.24171 6.25985L37.9783 6.25985C39.9904 6.25985 41.22 5.05818 41.22 3.12993C41.22 1.17372 39.9904 1.60634e-06 37.9783 1.51838e-06L3.24171 0C1.22961-8.79515e-08 8.55083e-08 1.17372 0 3.12993ZM0.447131 27.9178C0.447131 39.9345 7.93659 47.0048 20.6799 47.0048C33.3952 47.0048 40.7729 39.9066 40.7729 27.9178L40.7729 16.8234C40.7729 14.8671 39.5433 13.6934 37.5312 13.6934L3.68884 13.6934C1.67675 13.6934 0.447132 14.8671 0.447132 16.8233L0.447131 27.9178ZM5.86861 27.331L5.86861 19.9533L35.3793 19.9533L35.3793 27.331C35.3793 35.8544 30.1255 40.6052 20.624 40.6052C11.0945 40.6052 5.86861 35.8824 5.86861 27.331Z"
     fill="currentColor" fill-rule="evenodd" opacity="1" stroke="none" />
 </g>
</svg>
